# File produced by Open Asset Import Library (http://www.assimp.sf.net)
# (assimp v3.1.187496374)

mtllib banana_print.obj.mtl

# 100 vertex positions
v  692.279 10.5008 799.848
v  692.279 14.3885 802.025
v  690.728 9.51789 799.297
v  693.003 12.4447 800.937
v  686.146 14.3885 802.025
v  690.384 15.5899 802.698
v  686.835 10.064 799.603
v  688.041 9.29946 799.175
v  685.422 12.4447 800.937
v  688.041 15.5899 802.698
v  691.081 21.5878 798.022
v  687.251 21.761 797.889
v  683.41 21.4575 795.138
v  682.169 19.2592 791.929
v  687.71 89.6346 792.766
v  686.377 87.6401 793.687
v  685.338 93.9593 803.553
v  684.383 16.726 786.634
v  686.902 15.1129 785.951
v  692.274 15.7365 785.849
v  695.552 17.8447 786.73
v  698.896 25.5062 785.479
v  686.503 88.1392 779.12
v  683.773 86.8965 780.838
v  686.49 91.4377 788.104
v  700.435 70.9706 779.14
v  698.312 61.7162 770.357
v  698.08 74.8024 773.9
v  693.575 29.2147 772.212
v  685.764 37.2572 767.912
v  693.676 37.5029 768.607
v  685.841 28.8802 771.575
v  692.429 93.8966 803.747
v  690.979 98.7759 806.028
v  691.487 97.4935 806.921
v  683.333 81.4601 790.847
v  686.661 76.1768 790.925
v  687.138 85.3689 794.481
v  693.439 90.5013 788.537
v  693.756 61.1223 766.941
v  685.721 63.5067 766.599
v  685.764 71.8513 768.623
v  697.309 30.1644 789.68
v  682.953 86.2185 790.642
v  678.754 28.6935 783.438
v  680.133 41.8133 784.31
v  685.67 42.0383 788.393
v  691.256 91.3555 800.413
v  691.236 97.2385 801.458
v  682.745 78.8112 774.543
v  678.195 72.1663 779.725
v  680.503 82.1344 785.026
v  692.606 38.0635 790.039
v  686.095 21.522 776.937
v  693.336 79.4858 773.015
v  692.735 87.9492 779.848
v  700.394 51.6294 776.385
v  698.313 42.2202 770.68
v  690.979 96.2111 807.814
v  678.002 43.1749 777.201
v  680.146 55.477 782.802
v  686.026 79.7567 772.404
v  682.885 22.8916 778.825
v  693.247 21.9133 777.477
v  697.374 23.6743 779.904
v  691.131 86.2237 794.395
v  690.703 94.611 799.999
v  700.332 37.0705 779.075
v  698.237 41.1437 784.531
v  688.66 91.5772 805.004
v  689.65 95.4185 808.366
v  688.007 95.4185 808.366
v  687.651 95.0122 799.743
v  687.124 97.6209 801.177
v  682.372 30.0484 773.806
v  698.034 30.7128 775.082
v  692.655 46.6128 787.375
v  686.677 96.2111 807.814
v  686.17 97.4935 806.921
v  698.146 69.822 785.772
v  696.356 86.282 788.873
v  682.213 38.1171 770.344
v  688.007 99.5684 805.476
v  698.31 54.7401 782.707
v  685.741 55.3299 786.823
v  682.159 48.4674 768.508
v  685.71 48.3476 765.902
v  693.703 46.1228 766.93
v  692.662 57.4867 787.175
v  685.764 68.4401 789.574
v  688.193 88.584 799.205
v  677.966 59.5972 776.787
v  690.474 89.3692 793.07
v  682.128 68.5399 770.082
v  692.132 75.521 790.747
v  680.224 69.7359 785.684
v  692.639 81.9877 793.446
v  693.676 71.7328 769.35
v  696.14 86.4005 782.06
v  696.483 77.6363 788.194

# 0 UV coordinates

# 191 vertex normals
vn -2.86626e-14 -0.488735 0.872432
vn 4.68041e-15 -0.488735 0.872432
vn 1.404e-14 -0.488735 0.872432
vn 0 -0.488735 0.872432
vn 1.78745e-14 -0.488735 0.872432
vn 0.546021 0.474725 0.690288
vn 0.000478643 0.614711 0.788752
vn 0 0.614862 0.788635
vn -0.537586 0.472442 0.698426
vn -0.931349 -0.00571329 0.364083
vn -0.845603 0.404636 -0.348174
vn -0.848115 -0.519048 -0.106258
vn -0.570553 -0.768797 -0.288827
vn 0.0975564 -0.907556 -0.408443
vn 0.571637 -0.768453 -0.287596
vn 0.91718 -0.398256 0.0131661
vn -0.541729 0.788787 -0.290423
vn 0.934027 0.108617 -0.340287
vn 0.0925293 -0.398085 -0.91267
vn 0.0923703 -0.398217 -0.912629
vn 0.94463 0.318192 -0.0801698
vn -0.544862 0.470933 0.693792
vn -0.485167 -0.293454 0.82371
vn 0.10535 0.936447 0.334618
vn 0.110393 0.233684 -0.966025
vn 0.366783 0.498 0.785791
vn -0.641544 0.640258 0.422482
vn -0.911565 0.0688874 0.405343
vn 0.931081 -0.011499 0.364632
vn -0.569435 0.31179 0.760612
vn -0.583017 -0.762211 -0.281291
vn 0.922956 0.070271 -0.378437
vn -0.87981 0.365405 -0.303997
vn -0.0113968 0.436898 0.899439
vn 0.0827587 -0.808675 -0.582405
vn 0.62139 0.518435 -0.587452
vn 0.942304 -0.00548106 -0.334713
vn 0.91871 -0.0971841 0.382789
vn -0.871617 -0.487222 -0.0538326
vn 0.580024 0.31111 0.752849
vn 0.0295411 0.425808 0.904331
vn -0.955561 0.0332505 0.292912
vn -0.9308 -0.00800639 0.365442
vn 0.0881009 0.619792 -0.779805
vn -0.865873 -0.459844 -0.196995
vn -0.560165 -0.69798 -0.446139
vn 0.0882146 -0.806421 -0.584725
vn 0.560214 -0.697805 -0.44635
vn 0.978244 0.14743 -0.145957
vn 0.947181 0.0669493 0.313635
vn 0.904008 -0.412809 -0.111169
vn 0.563908 -0.621363 0.543982
vn -0.572197 0.311458 0.758673
vn 0 -0.65859 0.752502
vn 0.137253 0.498496 -0.855958
vn -0.86996 -0.323414 -0.372253
vn -0.581938 -0.491935 -0.647571
vn 0.0916519 -0.585101 -0.805765
vn 0.0927642 -0.584302 -0.806217
vn 0.581588 -0.496143 -0.644668
vn 0.955333 -0.224816 -0.191823
vn 0.0686756 0.936538 -0.343773
vn 0.612287 0.231992 0.755834
vn -0.927203 -0.120036 0.354804
vn -0.0556777 0.297305 0.953158
vn -0.950477 0.0799607 0.300334
vn 0.942385 0.0399209 0.332141
vn -0.893085 -0.192105 -0.406811
vn -0.586597 -0.32903 -0.740029
vn -0.58655 -0.329017 -0.740072
vn 0.622345 -0.292747 -0.725938
vn 0 0.571479 0.820616
vn 5.48287e-15 0.571479 0.820616
vn 8.38088e-14 0.571479 0.820616
vn -5.08773e-14 0.571479 0.820616
vn 0.95414 0.0347938 0.297333
vn 0.899934 0.0970258 0.425093
vn 0.0680727 0.116727 0.990828
vn -0.579725 0.089967 0.80983
vn 0.874462 0.0876357 -0.477112
vn -0.876556 -0.0884756 -0.473099
vn -0.588543 -0.146964 -0.794996
vn 0.0729335 -0.190647 -0.978945
vn 0.103339 0.466895 -0.878254
vn 0.963048 -0.0528854 -0.264088
vn -0.58654 -0.625303 0.514749
vn 0.624496 0.013954 0.780903
vn -0.578384 -0.166584 0.798575
vn 0.529068 -0.754272 0.388793
vn -0.938648 0.00667579 0.344812
vn 0.722363 0.391194 0.570228
vn -0.862513 0.0985511 -0.496345
vn 0.127719 0.000216188 -0.99181
vn 0.601084 -0.0131949 -0.799077
vn -0.565637 -0.696532 -0.441473
vn -0.782473 0.611707 -0.116406
vn 0.56596 -0.69346 -0.445871
vn 0.951378 0.0501807 0.303911
vn 0.572537 -0.746461 0.339112
vn 0.950877 0.305616 -0.0493031
vn -0.870494 0.0371214 -0.490777
vn -0.67019 0.034593 -0.741383
vn -0.0565094 0.0183791 0.998233
vn 0.931291 -0.363116 0.0290543
vn 0.961857 0.0365691 -0.271096
vn 0.946758 -0.054195 0.317351
vn 0.54351 -0.147681 0.826309
vn 0.048201 -0.205228 0.977526
vn -0.59189 -0.156597 0.790661
vn -0.951696 -0.0533671 0.302369
vn -0.67821 -0.0226389 0.73452
vn -0.144587 -0.264944 0.953362
vn -0.518959 0.203952 -0.830112
vn 0.0925841 0.221171 -0.97083
vn 0.625617 0.214118 -0.750171
vn -0.582803 -0.144874 -0.799595
vn -0.587649 -0.492397 -0.642038
vn 0.957117 -0.219354 -0.189236
vn 0.0113307 -0.173274 0.984808
vn 0.5412 0.793934 -0.277075
vn 0.574035 0.185479 -0.797547
vn -0.862231 0.244487 -0.443603
vn -0.579922 0.367115 -0.727267
vn 0.0909621 0.428803 -0.898807
vn 0.535974 -0.162814 -0.828386
vn 0.758824 -0.0399324 0.65007
vn -0.90454 0.112587 -0.411257
vn -0.437331 -0.262783 0.86005
vn -0.900156 -0.0228715 0.434968
vn -0.561224 0.551688 -0.616983
vn -0.88883 0.346453 -0.299919
vn -0.611977 0.515429 -0.599847
vn 0.109017 0.629124 -0.769622
vn 0.619115 0.518549 -0.589748
vn 0.961776 0.272621 -0.0257907
vn 0.938891 -0.142578 -0.313298
vn -0.635499 -0.566896 0.524186
vn -0.0159572 -0.384143 0.923136
vn 0.520742 0.38334 -0.762809
vn -0.589239 0.06224 -0.805558
vn 0.587679 -0.490398 -0.643539
vn -0.836982 0.546279 -0.0322464
vn -0.584587 -0.07328 0.808015
vn 0.791881 -0.0362688 0.609598
vn -0.950433 -0.0566019 0.305735
vn 0.0891275 0.427381 -0.899667
vn 0.534303 0.109591 0.838159
vn -0.900487 -0.0534426 0.431587
vn 0.0923991 -0.908568 -0.407389
vn -0.834496 0.550097 -0.0317744
vn 0.145501 0.946006 -0.289659
vn 0.112605 0.896176 -0.429173
vn 0.563956 -0.158575 0.810437
vn 0.0976173 -0.363427 0.926494
vn -0.593287 0.0975969 0.799053
vn -0.671845 0.0332319 0.739946
vn 0.823108 0.567652 -0.0162578
vn -0.655644 0.630451 0.415526
vn 0.586742 -0.328959 -0.739946
vn 0.979193 0.144891 -0.142085
vn 0.584321 -0.598026 0.548575
vn 0.632533 0.485362 0.603594
vn 0.94106 -0.0496633 0.334575
vn 0.141847 0.784609 -0.603547
vn 0.574107 0.307312 0.758921
vn -0.930792 0.0908667 0.354076
vn 0.0105472 -0.193975 0.98095
vn 0.721935 0.103675 0.68415
vn -0.878545 -0.453362 -0.150402
vn -0.906139 -0.206142 -0.369347
vn 0.0612474 0.958237 0.27934
vn 0.594645 -0.348966 0.724306
vn 0.55029 -0.138059 0.823481
vn -0.643022 -0.658197 0.391534
vn 0.401651 -0.700929 0.589385
vn 0.296425 0.910122 -0.289499
vn -0.923184 0.355773 -0.145457
vn -0.92205 -0.191602 0.336321
vn 0.933099 0.297888 -0.201467
vn 0.583293 -0.760729 -0.284711
vn 0.630127 -0.00172496 -0.77649
vn 0.94528 0.0554081 0.321521
vn -0.898957 -0.0129742 -0.437845
vn -0.906045 0.108262 0.409099
vn 0.0915759 -0.177194 -0.979906
vn 0.189046 -0.830924 0.523285
vn -0.691041 -0.639501 0.336899
vn -0.60437 0.347652 -0.716851
vn -0.808868 0.462371 -0.363243
vn 0.0559861 0.0458493 -0.997378
vn 0.153492 0.78557 -0.599434

# Mesh '<STL_BINARY>' with 196 faces
g <STL_BINARY>
usemtl DefaultMaterial
f  1//1 2//1 3//1
f  1//1 4//2 2//1
f  5//3 2//1 6//4
f  3//1 2//1 5//3
f  7//3 3//1 5//3
f  3//1 7//3 8//5
f  7//3 5//3 9//3
f  5//3 6//4 10//4
f  6//6 2//6 11//6
f  10//7 11//7 12//7
f  10//8 6//8 11//8
f  5//9 12//9 13//9
f  5//10 13//10 14//10
f  15//11 16//11 17//11
f  7//12 14//12 18//12
f  8//13 18//13 19//13
f  3//14 19//14 20//14
f  1//15 20//15 21//15
f  4//16 21//16 22//16
f  23//17 24//17 25//17
f  26//18 27//18 28//18
f  29//19 30//19 31//19
f  29//20 32//20 30//20
f  33//21 34//21 35//21
f  5//22 10//22 12//22
f  36//23 37//23 38//23
f  39//24 25//24 15//24
f  40//25 41//25 42//25
f  11//26 2//26 43//26
f  25//27 44//27 16//27
f  45//28 13//28 46//28
f  2//29 22//29 43//29
f  13//30 12//30 47//30
f  8//31 7//31 18//31
f  48//32 49//32 33//32
f  50//33 51//33 52//33
f  12//34 11//34 53//34
f  20//35 19//35 54//35
f  28//36 55//36 56//36
f  57//37 58//37 27//37
f  33//38 35//38 59//38
f  7//39 9//39 14//39
f  11//40 43//40 53//40
f  12//41 53//41 47//41
f  60//42 46//42 61//42
f  14//43 13//43 45//43
f  55//44 62//44 23//44
f  18//45 45//45 63//45
f  19//46 63//46 54//46
f  20//47 54//47 64//47
f  21//48 64//48 65//48
f  66//49 67//49 48//49
f  43//50 68//50 69//50
f  22//51 21//51 65//51
f  70//52 33//52 71//52
f  13//53 47//53 46//53
f  70//54 71//54 72//54
f  67//55 73//55 74//55
f  63//56 45//56 75//56
f  54//57 75//57 32//57
f  64//58 32//58 29//58
f  64//59 54//59 32//59
f  65//60 29//60 76//60
f  22//61 76//61 68//61
f  56//62 23//62 25//62
f  53//63 69//63 77//63
f  17//64 78//64 79//64
f  47//65 53//65 77//65
f  45//66 46//66 60//66
f  80//67 26//67 81//67
f  75//68 60//68 82//68
f  32//69 82//69 30//69
f  32//70 75//70 82//70
f  76//71 31//71 58//71
f  59//72 72//72 71//72
f  59//72 78//72 72//72
f  78//72 59//72 34//73
f  35//74 34//73 59//72
f  78//72 34//73 83//73
f  78//72 83//73 79//75
f  69//76 57//76 84//76
f  2//77 4//77 22//77
f  47//78 77//78 85//78
f  46//79 85//79 61//79
f  48//80 67//80 49//80
f  82//81 60//81 86//81
f  30//82 86//82 87//82
f  31//83 87//83 88//83
f  67//84 74//84 49//84
f  68//85 58//85 57//85
f  17//86 72//86 78//86
f  77//87 84//87 89//87
f  61//88 85//88 90//88
f  91//89 48//89 33//89
f  60//90 61//90 92//90
f  66//91 39//91 93//91
f  73//92 17//92 74//92
f  88//93 87//93 40//93
f  58//94 40//94 27//94
f  19//95 18//95 63//95
f  74//96 79//96 83//96
f  21//97 20//97 64//97
f  43//98 22//98 68//98
f  91//99 33//99 70//99
f  33//100 49//100 34//100
f  86//101 92//101 94//101
f  87//102 94//102 41//102
f  85//103 77//103 89//103
f  4//104 1//104 21//104
f  57//105 27//105 26//105
f  84//106 26//106 80//106
f  89//107 80//107 95//107
f  85//108 95//108 90//108
f  61//109 90//109 96//109
f  92//110 96//110 51//110
f  44//111 36//111 38//111
f  37//112 97//112 66//112
f  41//113 94//113 42//113
f  40//114 42//114 98//114
f  27//115 98//115 28//115
f  30//116 82//116 86//116
f  54//117 63//117 75//117
f  22//118 65//118 76//118
f  90//119 95//119 37//119
f  99//120 56//120 39//120
f  27//121 40//121 98//121
f  94//122 51//122 50//122
f  42//123 50//123 62//123
f  98//124 62//124 55//124
f  58//125 31//125 88//125
f  80//126 81//126 100//126
f  94//127 92//127 51//127
f  96//128 37//128 36//128
f  51//129 36//129 52//129
f  62//130 50//130 24//130
f  50//131 52//131 24//131
f  62//132 24//132 23//132
f  55//133 23//133 56//133
f  28//134 56//134 99//134
f  26//135 99//135 81//135
f  68//136 76//136 58//136
f  17//137 70//137 72//137
f  37//138 95//138 97//138
f  28//139 98//139 55//139
f  87//140 86//140 94//140
f  65//141 64//141 29//141
f  24//142 52//142 44//142
f  96//143 90//143 37//143
f  100//144 81//144 97//144
f  92//145 61//145 96//145
f  98//146 42//146 62//146
f  77//147 69//147 84//147
f  52//148 36//148 44//148
f  3//149 8//149 19//149
f  24//150 44//150 25//150
f  56//151 25//151 39//151
f  49//152 74//152 83//152
f  89//153 84//153 80//153
f  37//154 66//154 38//154
f  46//155 47//155 85//155
f  44//156 38//156 16//156
f  81//157 99//157 39//157
f  25//158 16//158 15//158
f  76//159 29//159 31//159
f  66//160 93//160 67//160
f  71//161 33//161 59//161
f  81//162 39//162 66//162
f  84//163 57//163 26//163
f  93//164 15//164 73//164
f  53//165 43//165 69//165
f  51//166 96//166 36//166
f  85//167 89//167 95//167
f  97//168 81//168 66//168
f  18//169 14//169 45//169
f  75//170 45//170 60//170
f  39//171 15//171 93//171
f  95//172 100//172 97//172
f  95//173 80//173 100//173
f  91//174 70//174 17//174
f  66//175 48//175 91//175
f  49//176 83//176 34//176
f  74//177 17//177 79//177
f  38//178 91//178 16//178
f  26//179 28//179 99//179
f  1//180 3//180 20//180
f  58//181 88//181 40//181
f  69//182 68//182 57//182
f  86//183 60//183 92//183
f  9//184 5//184 14//184
f  31//185 30//185 87//185
f  38//186 66//186 91//186
f  16//187 91//187 17//187
f  42//188 94//188 50//188
f  15//189 17//189 73//189
f  40//190 87//190 41//190
f  93//191 73//191 67//191

